<?xml version="1.0" encoding="UTF-8"?><svg id="a" xmlns="http://www.w3.org/2000/svg" xmlns:xlink="http://www.w3.org/1999/xlink" viewBox="0 0 336 104"><defs><style>.e{fill:#242a31;}.e,.f,.g{fill-rule:evenodd;}.f{fill:#33be8f;}.h{clip-path:url(#c);}.i{fill:none;}.g{fill:#38d39f;}</style><clipPath id="c"><rect class="i" width="336" height="104"/></clipPath></defs><g id="b"><path class="g" d="M88.4,88.3H44.2l-21.7-21.8,22-22,43.9,43.8Z"/><path class="g" d="M88.3,.5L44.4,44.5,22.4,22.5,44.4,.5h43.9Z"/><path class="f" d="M22.4,22.5l22,22-22,22L.6,44.5v-.3L22.4,22.5Z"/><path class="g" d="M22.5,66.5L.6,88.4V44.5l21.9,22Z"/><path class="g" d="M22.4,22.5L.6,44.2v.3l-.1-.1V.6L22.4,22.5Z"/><g class="h"><g id="d"><path class="e" d="M209.6,62.8c-1.8,4.5-5.2,12.5-6.9,16.3-1.1,2.5-2.4,5.3-3.8,8.3-2.1,4.7-3.7,8.1-7.4,15.8h-17c2.8-2.8,3.8-4.1,5.5-6.4,2.7-3.9,4.6-7.3,9.2-16.9l-17.5-46.3h17.4l8.7,25.1h.2l9.3-25.1h14.2l-11.9,29.2Z"/></g></g><path class="e" d="M228.4,80.7h16.3V3.7h-16.3V80.7Z"/><path class="e" d="M258.3,80.7h16.3V30.3h-16.3v50.4Z"/><path class="e" d="M318.6,80.7v-25.2c0-5.2-2.6-8.4-6.9-8.4s-6.9,3.2-6.9,8.4v25.1h-16.3V31.6h15.6v9c5.2-5.7,9.9-8.3,15.4-8.3,9.4,0,15.5,6.9,15.5,17.1v31.3h-16.4Z"/><path class="g" d="M275.6,12.7c0,5.1-4.1,9.2-9.2,9.2s-9.2-4.1-9.2-9.2,4.1-9.2,9.2-9.2,9.2,4.1,9.2,9.2"/><path class="e" d="M106.2,5h18.1V40L149.6,5h21.4l-27.7,36.9,30.4,38.8h-22.5l-26.9-34.7v34.6h-18.1V5Z"/></g></svg>